<?xml version="1.0" standalone="no"?>
<!DOCTYPE svg PUBLIC "-//W3C//DTD SVG 20010904//EN"
 "http://www.w3.org/TR/2001/REC-SVG-20010904/DTD/svg10.dtd">
<svg version="1.0" xmlns="http://www.w3.org/2000/svg"
 width="412.000000pt" height="332.000000pt" viewBox="0 0 412.000000 332.000000"
 preserveAspectRatio="xMidYMid meet">
<metadata>
Created by potrace 1.15, written by Peter Selinger 2001-2017
</metadata>
<g transform="translate(0.000000,332.000000) scale(0.100000,-0.100000)"
fill="#000000" stroke="none">
<path d="M1246 3311 c-3 -4 -23 -11 -43 -13 -58 -8 -188 -66 -267 -119 -39
-26 -104 -80 -143 -121 -69 -70 -244 -288 -280 -349 -21 -34 -38 -38 -30 -6
39 157 62 340 49 396 -9 40 -32 54 -32 20 0 -127 -169 -707 -256 -881 -94
-187 -161 -391 -195 -594 -20 -123 23 -206 84 -161 11 8 19 31 23 67 8 83 20
124 117 400 121 345 165 447 274 628 215 358 382 542 588 645 95 47 156 60
223 48 100 -20 123 -44 123 -133 0 -54 -5 -75 -32 -124 -74 -138 -180 -263
-339 -404 -85 -75 -237 -189 -297 -223 -6 -4 -20 7 -32 27 -12 19 -33 42 -47
51 -25 16 -29 16 -66 -1 -43 -20 -91 -69 -115 -120 -15 -31 -15 -35 1 -53 9
-10 38 -27 63 -36 40 -16 53 -16 96 -5 52 13 66 7 67 -31 0 -16 53 -187 70
-224 83 -189 136 -256 235 -301 81 -37 146 -42 232 -15 96 29 155 56 208 96
25 19 49 35 54 35 5 0 22 -29 39 -63 35 -76 102 -144 181 -183 52 -26 66 -28
176 -28 100 -1 131 3 186 22 81 28 187 82 254 130 173 123 431 399 460 492 13
42 30 12 95 -170 20 -58 47 -121 58 -140 12 -19 22 -43 22 -52 0 -14 -28 -81
-80 -193 -5 -11 -19 -47 -31 -79 -21 -57 -21 -60 -3 -73 10 -7 21 -13 24 -13
18 0 53 55 87 136 21 50 45 101 54 114 l16 24 54 -50 c109 -101 186 -150 288
-183 90 -29 262 -30 350 0 132 43 281 121 281 147 0 10 -6 12 -17 7 -10 -4
-70 -23 -133 -41 -106 -32 -125 -35 -245 -34 -159 0 -213 14 -304 75 -71 46
-201 178 -201 202 0 7 30 62 67 121 36 59 88 143 115 186 33 54 46 82 39 89
-24 24 -57 -10 -190 -192 -41 -55 -79 -101 -86 -101 -19 0 -112 211 -149 340
-34 113 -87 121 -107 15 -22 -116 -92 -219 -274 -401 -128 -129 -261 -226
-363 -265 -65 -25 -209 -43 -266 -33 -102 17 -181 77 -230 175 -20 40 -36 78
-36 86 0 8 28 42 63 77 73 73 119 146 153 246 22 61 24 77 14 101 -45 109
-242 57 -325 -86 -41 -69 -55 -131 -55 -245 l0 -105 -116 -64 c-130 -72 -174
-87 -226 -77 -68 13 -182 129 -262 268 -37 63 -125 294 -117 305 3 5 54 39
114 77 260 165 423 337 542 575 71 141 71 233 2 301 -17 17 -49 36 -72 42 -22
6 -44 15 -49 20 -13 11 -123 10 -130 -1z m603 -1030 c19 -12 16 -69 -6 -116
-38 -82 -117 -185 -142 -185 -13 0 -9 53 9 115 33 109 52 160 66 177 18 19 50
23 73 9z"/>
<path d="M57 1094 c-14 -15 -6 -33 16 -36 22 -3 22 -6 25 -165 l2 -163 -25 0
c-22 0 -26 -4 -23 -22 3 -23 5 -23 153 -23 l150 0 0 90 c0 83 -2 90 -20 90
-17 0 -19 -6 -16 -53 4 -73 -7 -82 -89 -82 -53 0 -69 4 -74 16 -9 22 -7 287 2
300 4 7 16 13 27 15 11 3 20 11 20 19 0 12 -16 16 -70 18 -39 1 -74 0 -78 -4z"/>
<path d="M838 1088 c-138 -37 -184 -242 -78 -348 95 -95 260 -67 316 53 40 87
26 185 -35 246 -55 55 -122 71 -203 49z m142 -64 c43 -37 60 -74 60 -134 0
-88 -48 -149 -123 -157 -52 -6 -102 15 -132 55 -16 21 -20 43 -20 102 0 59 4
81 20 102 48 64 139 79 195 32z"/>
<path d="M1437 1093 c-14 -14 -6 -32 16 -35 22 -3 22 -6 25 -165 l2 -163 -25
0 c-22 0 -26 -4 -23 -22 3 -21 9 -23 76 -26 71 -3 72 -2 72 22 0 19 -6 25 -27
28 l-28 3 -3 143 c-2 112 0 143 10 140 13 -5 29 -29 138 -218 61 -106 68 -115
95 -115 l30 0 2 175 c1 96 2 181 2 188 1 8 11 12 29 10 21 -2 27 1 27 17 0 18
-7 20 -75 20 -68 0 -75 -2 -75 -20 0 -13 6 -19 17 -17 9 1 22 -6 27 -16 13
-25 9 -252 -4 -254 -5 -1 -41 52 -78 118 -115 202 -109 194 -170 194 -30 0
-57 -3 -60 -7z"/>
<path d="M2174 1085 c-8 -20 4 -35 27 -35 18 0 19 -8 19 -159 0 -158 0 -160
-22 -163 -15 -2 -23 -10 -23 -23 0 -19 8 -20 104 -23 192 -5 278 54 280 196 2
107 -41 177 -126 206 -63 22 -251 23 -259 1z m263 -55 c45 -27 63 -68 63 -142
0 -110 -49 -158 -159 -158 l-60 0 -3 153 c-2 83 -2 155 0 160 2 4 31 7 65 7
44 0 71 -6 94 -20z"/>
<path d="M3046 1088 c-24 -7 -56 -28 -81 -53 -79 -78 -82 -198 -9 -283 35 -41
101 -72 154 -72 53 0 119 31 155 72 97 114 49 292 -90 334 -55 16 -74 16 -129
2z m140 -58 c38 -24 74 -92 74 -141 -1 -50 -39 -119 -80 -140 -134 -72 -272
80 -200 220 38 76 135 105 206 61z"/>
<path d="M3642 1078 c2 -13 9 -22 17 -20 35 7 41 -17 41 -162 0 -147 -5 -166
-42 -166 -13 0 -18 -8 -18 -25 0 -26 1 -26 73 -23 64 3 72 5 72 23 0 13 -8 21
-22 23 -22 3 -23 7 -25 128 -1 68 -2 132 -2 141 -2 34 20 22 44 -24 14 -27 58
-103 98 -171 66 -111 76 -123 99 -120 l26 3 -2 173 c-2 174 4 207 33 196 18
-7 42 24 29 37 -5 5 -41 9 -79 7 -55 -2 -69 -6 -72 -20 -2 -11 5 -18 20 -20
23 -3 23 -5 26 -140 1 -76 -1 -138 -5 -138 -4 0 -23 28 -41 63 -18 34 -58 105
-90 157 l-57 95 -63 3 c-61 3 -63 2 -60 -20z"/>
<path d="M182 437 c-48 -51 -13 -137 55 -137 66 0 97 89 47 135 -34 31 -74 32
-102 2z"/>
</g>
</svg>
